<?xml version="1.0" encoding="utf-8"?>
<!-- Generator: Adobe Illustrator 28.2.0, SVG Export Plug-In . SVG Version: 6.00 Build 0)  -->
<svg version="1.1" id="Layer_1" xmlns="http://www.w3.org/2000/svg" xmlns:xlink="http://www.w3.org/1999/xlink" x="0px" y="0px"
	 viewBox="0 0 512 512" style="enable-background:new 0 0 512 512;" xml:space="preserve">
<style type="text/css">
	.st0{fill:#383D36;}
	.st1{fill:#AFE9C6;}
	.st2{fill-rule:evenodd;clip-rule:evenodd;fill:#AFE9C6;}
</style>
<path class="st0" d="M458,512H54c-29.8,0-54-24.2-54-54V54C0,24.2,24.2,0,54,0h404c29.8,0,54,24.2,54,54v404
	C512,487.8,487.8,512,458,512z"/>
<g>
	<g>
		<path class="st1" d="M425.4,232.9h-15v15h-15v-15h-15v15h-15v15h15v15h-15v15h15v14.3h15v-15h15v15h15v-15h15v-15h-15v-15h15v-15
			h-15V232.9z M410.7,277.6h-15v-15h15V277.6z"/>
		<polygon class="st1" points="306.6,203.2 321.2,203.2 321.2,307.3 306.6,307.3 306.6,322.3 336.3,322.3 336.3,188.1 306.6,188.1 
					"/>
		<polygon class="st1" points="83.3,322.3 113,322.3 113,307.3 98,307.3 98,203.2 113,203.2 113,188.1 83.3,188.1 		"/>
	</g>
	<path class="st2" d="M153.7,214.8h8.2V296h-8.2v28.3h51.9V296h-8.2v-28.3h21.8l5.5,5.5v51.2h45.1V296h-9.6v-33.8l-9.6-9.6l9.6-9.6
		v-35.2l-20.5-20.1h-86V214.8z M197.3,214.8V239h21.8l5.5-5.1v-13.3l-5.5-5.8C219.2,214.8,197.3,214.8,197.3,214.8z"/>
</g>
<g>
</g>
<g>
</g>
<g>
</g>
<g>
</g>
<g>
</g>
<g>
</g>
<g>
</g>
<g>
</g>
<g>
</g>
<g>
</g>
<g>
</g>
<g>
</g>
<g>
</g>
<g>
</g>
<g>
</g>
</svg>
