<?xml version="1.0" encoding="UTF-8" standalone="no"?>
<!-- Generator: Adobe Illustrator 28.1.0, SVG Export Plug-In . SVG Version: 6.00 Build 0)  -->

<svg
   version="1.1"
   x="0px"
   y="0px"
   viewBox="0 0 400 120"
   style="enable-background:new 0 0 400 120;"
   xml:space="preserve"
   id="svg21"
   sodipodi:docname="logo.svg"
   inkscape:version="1.4 (e7c3feb100, 2024-10-09)"
   xmlns:inkscape="http://www.inkscape.org/namespaces/inkscape"
   xmlns:sodipodi="http://sodipodi.sourceforge.net/DTD/sodipodi-0.dtd"
   xmlns:xlink="http://www.w3.org/1999/xlink"
   xmlns="http://www.w3.org/2000/svg"
   xmlns:svg="http://www.w3.org/2000/svg"><defs
   id="defs21" /><sodipodi:namedview
   id="namedview21"
   pagecolor="#ffffff"
   bordercolor="#000000"
   borderopacity="0.25"
   inkscape:showpageshadow="2"
   inkscape:pageopacity="0.0"
   inkscape:pagecheckerboard="0"
   inkscape:deskcolor="#d1d1d1"
   inkscape:zoom="1.3928276"
   inkscape:cx="121.33591"
   inkscape:cy="78.617052"
   inkscape:window-width="1436"
   inkscape:window-height="901"
   inkscape:window-x="0"
   inkscape:window-y="0"
   inkscape:window-maximized="0"
   inkscape:current-layer="g21" />
<style
   type="text/css"
   id="style1">
	.st0{display:none;fill:#A5C9B8;}
	.st1{fill:#232E29;stroke:#9FCCB6;stroke-width:4;stroke-miterlimit:10;}
	.st2{fill:#617E6F;}
	.st3{fill:#A1CCB7;}
	.st4{fill:#A0CDB7;stroke:#232E29;stroke-width:2;stroke-miterlimit:10;}
	.st5{display:none;}
</style>
<g
   id="Layer_1">
	<path
   class="st0"
   d="M42.4,298.8c-1.9,4.5-7.1,6.5-11.5,4.6s-6.5-7.1-4.6-11.5c1.9-4.5,7.1-6.5,11.5-4.6S44.3,294.3,42.4,298.8z    M51.6,330c0.3-0.6,0.3-1.3,0-1.9L41.7,307c2.4-1.5,4.2-3.7,5.3-6.2c3-7-0.3-15.1-7.3-18.1c-7-3-15.1,0.3-18.1,7.3   s0.3,15.1,7.3,18.1c2.6,1.1,5.4,1.4,8.1,0.8l9.9,21.1c0.2,0.6,0.7,1.1,1.3,1.4C49.6,331.8,51.1,331.2,51.6,330z"
   id="path1" />
	<g
   id="g21">
		<path
   class="st1"
   d="M359.4,94H40.6c-20.4,0-37-16.5-37-37v0c0-20.4,16.5-37,37-37h318.7c20.4,0,37,16.5,37,37v0    C396.3,77.4,379.8,94,359.4,94z"
   id="path2" />
		<path
   class="st2"
   d="M44.6,78.3c-0.4-0.1-0.7-0.4-0.8-0.7l-8.9-18.8L34.2,59c-1.1,0.3-2.2,0.5-3.3,0.5c-1.2,0-2.5-0.2-3.7-0.6    c-6.1-2-9.5-8.6-7.5-14.8c1.6-4.8,6.1-8.1,11.1-8.1c1.2,0,2.5,0.2,3.6,0.6c6.1,2,9.5,8.6,7.5,14.8c-0.7,2.2-2.2,4.3-4,5.7    l-0.5,0.4l8.9,18.8c0.2,0.3,0.2,0.7,0.1,1.1c-0.2,0.6-0.8,1-1.4,1C45,78.4,44.7,78.3,44.6,78.3z M30.9,38.9    c-3.8,0-7.2,2.4-8.4,6.1c-0.7,2.2-0.5,4.6,0.5,6.7c1.1,2.1,2.9,3.7,5.1,4.4c0.9,0.3,1.8,0.4,2.7,0.4c3.8,0,7.2-2.4,8.4-6.1    c0.7-2.2,0.5-4.6-0.5-6.7c-1.1-2.1-2.9-3.7-5.1-4.4C32.8,39.1,31.9,38.9,30.9,38.9z"
   id="path3" />
		<g
   id="g20">
			<path
   class="st3"
   d="M55.5,59.1h3l2-5.7h-3l0.4-2.7h3.5l1.9-5.7h2.9l-1.9,5.7h4.3l1.9-5.7h2.9l-1.9,5.7h2.5l-0.4,2.7h-3l-2,5.7     h2.9l-0.4,2.7h-3.4l-1.9,5.7h-2.9l1.9-5.7h-4.3l-1.9,5.7h-2.9l1.9-5.7H55L55.5,59.1z M65.6,59.1l2-5.7h-4.3l-2,5.7H65.6z"
   id="path4" />
			<path
   class="st3"
   d="M79.7,70.9V41.6h8.7v3.6h-4.8v22.2h4.8v3.6H79.7z"
   id="path5" />
			<path
   class="st3"
   d="M94.9,45h7.4c1.1,0,2.1,0.2,3.1,0.5c0.9,0.3,1.7,0.8,2.4,1.4c0.7,0.6,1.2,1.3,1.5,2.1     c0.4,0.8,0.5,1.8,0.5,2.8c0,1.5-0.4,2.8-1.1,3.8c-0.7,1.1-1.8,1.8-3.1,2.3l4.5,9.6h-4.3l-4.1-9h-2.9v9h-3.9V45z M98.8,55.3h3.5     c1.1,0,1.9-0.3,2.6-0.9c0.6-0.6,1-1.5,1-2.5c0-1.1-0.3-1.9-1-2.6c-0.6-0.6-1.5-1-2.6-1h-3.5V55.3z"
   id="path6" />
			<path
   class="st3"
   d="M115.5,70.9v-3.6h4.8V45.1h-4.8v-3.6h8.8v29.3H115.5z"
   id="path7" />
			<path
   class="st3"
   d="M132.6,63.9h6.1V53.8h-5.4v-3.5h9.1v13.6h5v3.6h-14.9V63.9z M137.6,45.6c0-0.6,0.2-1.1,0.6-1.5     c0.4-0.4,0.9-0.6,1.6-0.6h0.8c0.7,0,1.2,0.2,1.6,0.6c0.4,0.4,0.6,0.9,0.6,1.5c0,0.6-0.2,1.1-0.6,1.5c-0.4,0.4-1,0.6-1.6,0.6h-0.8     c-0.7,0-1.2-0.2-1.6-0.6C137.8,46.8,137.6,46.3,137.6,45.6z"
   id="path8" />
			<path
   class="st3"
   d="M150.7,56.7c0-1,0.1-2,0.4-2.8s0.7-1.5,1.2-2.1s1.1-1,1.9-1.3c0.7-0.3,1.5-0.5,2.4-0.5     c1.2,0,2.3,0.3,3.1,0.9c0.8,0.6,1.3,1.4,1.5,2.4h0.3c0-0.4,0-0.7-0.1-1.1c0-0.3-0.1-0.6-0.1-1c0-0.3,0-0.6,0-0.9v-5.6h3.9v22.8     h-3.7v-3h-0.3c-0.2,1-0.7,1.9-1.5,2.4c-0.8,0.6-1.8,0.9-3.1,0.9c-0.9,0-1.7-0.2-2.4-0.5c-0.7-0.3-1.4-0.8-1.9-1.4     c-0.5-0.6-0.9-1.3-1.2-2.2c-0.3-0.8-0.4-1.8-0.4-2.8V56.7z M158,64.4c1,0,1.8-0.3,2.4-0.9c0.6-0.6,0.9-1.4,0.9-2.5v-4.2     c0-1-0.3-1.9-0.9-2.5c-0.6-0.6-1.4-0.9-2.4-0.9c-1.1,0-1.9,0.3-2.5,0.9c-0.6,0.6-0.9,1.5-0.9,2.5v4.1c0,1.1,0.3,1.9,0.9,2.5     C156.1,64.1,156.9,64.4,158,64.4z"
   id="path9" />
			<path
   class="st3"
   d="M169.3,56.6c0-1,0.1-1.9,0.4-2.7c0.3-0.8,0.7-1.5,1.2-2.1c0.5-0.6,1.1-1,1.9-1.3c0.7-0.3,1.5-0.5,2.4-0.5     c1.3,0,2.4,0.3,3.2,0.9s1.4,1.5,1.6,2.5h0.2v-3.1h3.7v16.1c0,1-0.2,1.8-0.5,2.6c-0.3,0.8-0.8,1.4-1.4,2c-0.6,0.5-1.4,1-2.3,1.2     c-0.9,0.3-1.9,0.4-3,0.4h-4.6v-3.2h4.6c1,0,1.8-0.3,2.4-0.8c0.6-0.5,0.9-1.2,0.9-2.2v-0.3l0.1-3.4H180c-0.2,1.1-0.7,1.9-1.6,2.5     c-0.8,0.6-1.9,0.9-3.2,0.9c-0.9,0-1.7-0.2-2.4-0.5c-0.7-0.3-1.4-0.8-1.9-1.3c-0.5-0.6-0.9-1.3-1.2-2.1c-0.3-0.8-0.4-1.7-0.4-2.7     V56.6z M173.2,59.3c0,1.1,0.3,1.9,0.9,2.5c0.6,0.6,1.4,0.9,2.5,0.9c1,0,1.9-0.3,2.5-0.9c0.6-0.6,0.9-1.4,0.9-2.5v-2.6     c0-1-0.3-1.9-0.9-2.5c-0.6-0.6-1.4-0.9-2.5-0.9c-1.1,0-1.9,0.3-2.5,0.9c-0.6,0.6-0.9,1.4-0.9,2.5V59.3z"
   id="path10" />
			<path
   class="st3"
   d="M195.6,67.8c-1.1,0-2.1-0.2-3.1-0.5c-0.9-0.3-1.7-0.8-2.4-1.4c-0.6-0.6-1.1-1.3-1.5-2.1     c-0.4-0.8-0.5-1.8-0.5-2.8v-4.3c0-1,0.2-1.9,0.5-2.8c0.4-0.8,0.9-1.5,1.5-2.1c0.6-0.6,1.4-1,2.4-1.3c0.9-0.3,2-0.5,3.1-0.5     c1.1,0,2.1,0.2,3.1,0.5c0.9,0.3,1.7,0.8,2.3,1.4c0.6,0.6,1.1,1.3,1.5,2.1c0.4,0.8,0.5,1.8,0.5,2.8v3.1h-11V61c0,1.1,0.3,2,1,2.7     c0.6,0.6,1.5,1,2.6,1c0.9,0,1.6-0.1,2.2-0.4c0.6-0.3,1-0.6,1.3-1.1h3.8c-0.2,0.7-0.5,1.4-0.9,1.9c-0.4,0.6-1,1.1-1.6,1.5     c-0.6,0.4-1.4,0.7-2.2,0.9S196.5,67.8,195.6,67.8z M199.2,57.2v-0.5c0-1.1-0.3-2-0.9-2.7c-0.6-0.6-1.5-1-2.7-1     c-1.1,0-2,0.3-2.6,1c-0.6,0.6-1,1.5-1,2.6v0.5H199.2z"
   id="path11" />
			<path
   class="st3"
   d="M207.2,44.7h3.9v5.6c0,0.3,0,0.6,0,1c0,0.3,0,0.7-0.1,1c0,0.3-0.1,0.6-0.1,1h0.3c0.2-1,0.7-1.8,1.5-2.4     c0.8-0.6,1.8-0.9,3.1-0.9c1.7,0,3.1,0.6,4.1,1.7s1.5,2.6,1.5,4.6v11.2h-3.9V56.7c0-1-0.3-1.9-0.8-2.5c-0.6-0.6-1.3-0.9-2.3-0.9     c-1,0-1.8,0.3-2.4,0.9c-0.6,0.6-0.9,1.5-0.9,2.5v10.7h-3.9V44.7z"
   id="path12" />
			<path
   class="st3"
   d="M225.3,62.7c0-0.9,0.2-1.6,0.5-2.3c0.3-0.7,0.8-1.3,1.3-1.7s1.3-0.8,2.1-1.1c0.8-0.3,1.7-0.4,2.8-0.4h4.3     v-1.5c0-0.8-0.3-1.4-0.9-1.9c-0.6-0.5-1.4-0.7-2.5-0.7c-0.9,0-1.6,0.2-2.2,0.5c-0.6,0.3-1,0.7-1.1,1.3h-3.8     c0.3-1.5,1-2.7,2.3-3.5c1.3-0.9,2.9-1.3,4.8-1.3c1.1,0,2.1,0.1,3,0.4c0.9,0.3,1.7,0.6,2.3,1.1c0.6,0.5,1.1,1.1,1.5,1.8     c0.3,0.7,0.5,1.5,0.5,2.3v11.9h-3.7v-3.4h-0.2c-0.2,1.1-0.8,2-1.8,2.7s-2.2,1-3.6,1c-1.7,0-3.1-0.5-4.1-1.4     C225.8,65.5,225.3,64.2,225.3,62.7z M232.2,64.7c1.2,0,2.2-0.3,2.9-0.9c0.8-0.6,1.1-1.3,1.1-2.2v-2H232c-0.9,0-1.6,0.2-2.1,0.7     c-0.5,0.4-0.7,1.1-0.7,1.8s0.3,1.4,0.8,1.9C230.5,64.5,231.2,64.7,232.2,64.7z"
   id="path13" />
			<path
   class="st3"
   d="M252,67.8c-1.1,0-2.1-0.2-3.1-0.5c-0.9-0.3-1.7-0.8-2.3-1.3c-0.6-0.6-1.1-1.3-1.5-2.1     c-0.4-0.8-0.5-1.7-0.5-2.8v-4.4c0-1,0.2-1.9,0.5-2.8s0.9-1.5,1.5-2.1c0.6-0.6,1.4-1,2.3-1.4c0.9-0.3,1.9-0.5,3.1-0.5     c1,0,1.9,0.1,2.8,0.4c0.9,0.3,1.6,0.7,2.2,1.2c0.6,0.5,1.2,1.2,1.6,1.9c0.4,0.7,0.7,1.6,0.9,2.5h-3.9c-0.1-0.8-0.5-1.4-1.2-1.9     c-0.6-0.5-1.4-0.7-2.4-0.7c-1.1,0-2,0.3-2.6,0.9c-0.6,0.6-0.9,1.4-0.9,2.4v4.4c0,1,0.3,1.8,0.9,2.4c0.6,0.6,1.5,0.9,2.6,0.9     c0.9,0,1.7-0.2,2.4-0.7c0.7-0.5,1.1-1.1,1.2-1.9h3.9c-0.1,0.9-0.4,1.8-0.9,2.5c-0.4,0.7-1,1.4-1.6,1.9c-0.7,0.5-1.4,0.9-2.2,1.2     S253,67.8,252,67.8z"
   id="path14" />
			<path
   class="st3"
   d="M267.5,44.7v12.4h2.7l4.3-6.8h4.4l-5.3,8.4l5.4,8.8h-4.5l-4.3-7.1h-2.7v7.1h-3.9V44.7H267.5z"
   id="path15" />
			<path
   class="st3"
   d="M288.6,67.8c-2,0-3.6-0.4-4.8-1.2c-1.2-0.8-1.9-2-2.1-3.5h4c0.1,0.5,0.4,1,1,1.3c0.5,0.3,1.2,0.5,1.9,0.5     h1.2c1,0,1.7-0.2,2.3-0.6c0.5-0.4,0.8-0.9,0.8-1.6c0-1.1-0.9-1.8-2.7-2.1l-2.4-0.3c-2-0.2-3.4-0.8-4.3-1.6     c-0.9-0.8-1.4-2-1.4-3.6c0-1.6,0.6-2.9,1.7-3.7c1.1-0.9,2.8-1.3,4.9-1.3h1.3c1.9,0,3.4,0.4,4.6,1.2c1.2,0.8,1.8,1.9,2,3.4h-4     c-0.1-0.5-0.4-0.9-0.9-1.1c-0.5-0.3-1.1-0.4-1.8-0.4h-1.3c-1.8,0-2.7,0.6-2.7,1.9c0,1.1,0.8,1.7,2.3,1.9l2.5,0.3     c2,0.2,3.5,0.8,4.5,1.7c1,0.9,1.5,2.1,1.5,3.6c0,1.7-0.6,3-1.8,3.9c-1.2,0.9-2.9,1.4-5.1,1.4H288.6z"
   id="path16" />
			<path
   class="st2"
   d="M315.2,51.3c0,0.8-0.1,1.5-0.3,2.2c-0.2,0.7-0.5,1.5-0.9,2.2c-0.4,0.7-1,1.4-1.6,2.2     c-0.7,0.7-1.5,1.5-2.4,2.2l-3.2,2.7c-0.5,0.4-0.9,0.6-1.3,0.8c-0.2,0.1-0.4,0.2-0.7,0.3V64c0.3,0,0.6,0,0.9-0.1c0.3,0,0.6,0,1,0     c0.3,0,0.7,0,1,0h7.8v3.5h-15.1v-4.1l7.2-5.8c1.3-1.1,2.3-2.1,2.8-3c0.6-0.9,0.9-2,0.9-3c0-1-0.3-1.8-0.9-2.4s-1.4-0.9-2.5-0.9     c-1.1,0-2,0.3-2.7,0.9c-0.7,0.6-1,1.4-1,2.3h-4c0-1,0.2-1.9,0.6-2.7c0.4-0.8,0.9-1.5,1.6-2.1s1.5-1,2.4-1.3     c0.9-0.3,2-0.5,3.1-0.5c1.1,0,2.1,0.2,3,0.5c0.9,0.3,1.7,0.8,2.3,1.3c0.6,0.6,1.1,1.3,1.5,2.1C315,49.4,315.2,50.3,315.2,51.3z"
   id="path17" />
			<path
   class="st2"
   d="M319.2,60.9v-9.3c0-1,0.2-2,0.5-2.8s0.9-1.6,1.5-2.2c0.6-0.6,1.4-1.1,2.4-1.4c0.9-0.3,2-0.5,3.1-0.5     s2.1,0.2,3.1,0.5c0.9,0.3,1.7,0.8,2.4,1.4c0.6,0.6,1.1,1.3,1.5,2.2c0.4,0.8,0.5,1.8,0.5,2.8v9.3c0,1-0.2,2-0.5,2.8     c-0.4,0.9-0.9,1.6-1.5,2.2s-1.4,1.1-2.4,1.4c-0.9,0.3-1.9,0.5-3.1,0.5s-2.1-0.2-3.1-0.5s-1.7-0.8-2.4-1.4     c-0.6-0.6-1.1-1.3-1.5-2.2C319.4,62.9,319.2,61.9,319.2,60.9z M323.1,60.9c0,1.1,0.3,1.9,1,2.5c0.7,0.6,1.5,0.9,2.6,0.9     c1.1,0,2-0.3,2.7-0.9c0.7-0.6,1-1.5,1-2.5v-9.3c0-1.1-0.3-1.9-1-2.5s-1.6-0.9-2.7-0.9c-1.1,0-2,0.3-2.6,0.9c-0.7,0.6-1,1.5-1,2.5     V60.9z M325.2,54.8c0-0.5,0.1-0.9,0.4-1.2s0.6-0.5,1.1-0.5c0.4,0,0.8,0.2,1.1,0.5c0.3,0.3,0.4,0.7,0.4,1.2v3.1     c0,0.5-0.1,0.9-0.4,1.2c-0.3,0.3-0.6,0.5-1.1,0.5c-0.4,0-0.8-0.2-1.1-0.5s-0.4-0.7-0.4-1.2V54.8z"
   id="path18" />
			<path
   class="st2"
   d="M352.7,51.3c0,0.8-0.1,1.5-0.3,2.2c-0.2,0.7-0.5,1.5-0.9,2.2c-0.4,0.7-1,1.4-1.6,2.2     c-0.7,0.7-1.5,1.5-2.4,2.2l-3.2,2.7c-0.5,0.4-0.9,0.6-1.3,0.8c-0.2,0.1-0.4,0.2-0.7,0.3V64c0.3,0,0.6,0,0.9-0.1c0.3,0,0.6,0,1,0     c0.3,0,0.7,0,1,0h7.8v3.5h-15.1v-4.1l7.2-5.8c1.3-1.1,2.3-2.1,2.8-3c0.6-0.9,0.9-2,0.9-3c0-1-0.3-1.8-0.9-2.4s-1.4-0.9-2.5-0.9     c-1.1,0-2,0.3-2.7,0.9c-0.7,0.6-1,1.4-1,2.3h-4c0-1,0.2-1.9,0.6-2.7c0.4-0.8,0.9-1.5,1.6-2.1s1.5-1,2.4-1.3     c0.9-0.3,2-0.5,3.1-0.5c1.1,0,2.1,0.2,3,0.5c0.9,0.3,1.7,0.8,2.3,1.3c0.6,0.6,1.1,1.3,1.5,2.1C352.5,49.4,352.7,50.3,352.7,51.3z     "
   id="path19" />
			
		<text
   xml:space="preserve"
   style="font-size:32px;font-family:los-feliz-bold;-inkscape-font-specification:los-feliz-bold;text-align:center;writing-mode:lr-tb;direction:ltr;text-anchor:middle;fill:#617e6f;fill-opacity:1;stroke-width:0.1;stroke-linecap:round;stroke-linejoin:bevel"
   x="364.40747"
   y="67.619408"
   id="text21"><tspan
     sodipodi:role="line"
     id="tspan21"
     x="364.40747"
     y="67.619408"
     style="font-style:normal;font-variant:normal;font-weight:600;font-stretch:normal;font-size:32px;font-family:'JetBrains Mono';-inkscape-font-specification:'JetBrains Mono Semi-Bold';fill:#617e6f;fill-opacity:1">5</tspan></text></g>
		<path
   class="st4"
   d="M381.3,84.4L343,65.8c-0.5-0.2-1-0.3-1.4-0.1c-0.2,0.1-0.5,0.2-0.6,0.4c-0.6,0.5-0.8,1.3-0.5,2l14.5,41.8    c0.3,0.7,0.9,1.2,1.7,1.3c0.2,0,0.5,0,0.7-0.1c0.5-0.2,0.9-0.5,1.1-1l5.7-11.7l9.7,10.7c0.7,0.8,1.9,0.8,2.7,0.1l4.2-3.8    c0.8-0.7,0.8-1.9,0.1-2.7l-10.2-11.3l10.6-3.7c0.7-0.3,1.2-0.9,1.3-1.7C382.4,85.4,382,84.7,381.3,84.4z"
   id="path21" />
	</g>
</g>
<g
   id="Layer_2"
   class="st5">
	
		<image
   style="display:inline;overflow:visible;"
   width="418"
   height="131"
   xlink:href="logo.png"
   transform="matrix(1 0 0 1 -9 -0.3926)"
   id="image21">
	</image>
</g>
</svg>
