<?xml version="1.0" encoding="utf-8"?>
<!-- Generator: Adobe Illustrator 28.1.0, SVG Export Plug-In . SVG Version: 6.00 Build 0)  -->
<svg version="1.1" id="Layer_1" xmlns="http://www.w3.org/2000/svg" xmlns:xlink="http://www.w3.org/1999/xlink" x="0px" y="0px"
	 viewBox="0 0 436 51" style="enable-background:new 0 0 436 51;" xml:space="preserve">
<style type="text/css">
	.st0{fill:#EEE5E9;}
	.st1{fill-rule:evenodd;clip-rule:evenodd;fill:#EEE5E9;}
</style>
<g>
	<rect x="156.9" y="8.5" class="st0" width="4.4" height="4.4"/>
	<path class="st0" d="M196.2,39h13.1v4.4h-13.1v4.4h17.5V17.2h-17.5V39z M200.5,21.5h8.7v13.1h-8.7V21.5z"/>
	<path class="st0" d="M187.5,17.2h-13.1V39h17.5V8.5h-4.4V17.2z M187.5,34.6h-8.7V21.5h8.7V34.6z"/>
	<polygon class="st0" points="161.3,17.2 152.6,17.2 152.6,21.5 156.9,21.5 156.9,34.6 152.6,34.6 152.6,39 165.7,39 165.7,34.6 
		161.3,34.6 	"/>
	<path class="st0" d="M104.6,17.2h-4.4v4.4h-4.4v-4.4h-4.4v4.4h-4.4v4.4h4.4v4.4h-4.4v4.4h4.4V39h4.4v-4.4h4.4V39h4.4v-4.4h4.4v-4.4
		h-4.4v-4.4h4.4v-4.4h-4.4V17.2z M100.3,30.3h-4.4v-4.4h4.4V30.3z"/>
	<polygon class="st0" points="69.8,8.5 74.1,8.5 74.1,39 69.8,39 69.8,43.4 78.5,43.4 78.5,4.1 69.8,4.1 	"/>
	<polygon class="st0" points="4.4,43.4 13.1,43.4 13.1,39 8.7,39 8.7,8.5 13.1,8.5 13.1,4.1 4.4,4.1 	"/>
	<polygon class="st0" points="130.8,39 135.1,39 135.1,21.5 143.9,21.5 143.9,25.9 148.2,25.9 148.2,17.2 130.8,17.2 	"/>
	<path class="st0" d="M370.5,39H388V8.5h-17.5V39z M374.9,21.5h4.4v-4.4h-4.4v-4.4h8.7v13.1h-4.4v4.4h4.4v4.4h-8.7V21.5z"/>
	<polygon class="st0" points="327,30.3 340,30.3 340,34.6 327,34.6 327,39 344.4,39 344.4,25.9 331.3,25.9 331.3,21.5 344.4,21.5 
		344.4,17.2 327,17.2 	"/>
	<path class="st0" d="M218,39h17.5v-4.4h-13.1v-4.4h13.1V17.2H218V39z M222.3,21.5h8.7v4.4h-8.7V21.5z"/>
	<polygon class="st0" points="427.2,8.5 427.2,21.5 418.5,21.5 418.5,8.5 414.1,8.5 414.1,21.5 414.1,25.9 414.1,25.9 427.2,25.9 
		427.2,39 431.6,39 431.6,25.9 431.6,25.9 431.6,21.5 431.6,8.5 	"/>
	<polygon class="st0" points="392.3,12.8 405.4,12.8 405.4,21.5 392.3,21.5 392.3,39 409.8,39 409.8,34.6 396.7,34.6 396.7,25.9 
		409.8,25.9 409.8,8.5 392.3,8.5 	"/>
	<polygon class="st0" points="348.8,12.8 361.8,12.8 361.8,21.5 348.8,21.5 348.8,39 366.2,39 366.2,34.6 353.1,34.6 353.1,25.9 
		366.2,25.9 366.2,8.5 348.8,8.5 	"/>
	<rect x="318.2" y="17.2" class="st0" width="4.4" height="8.7"/>
	<path class="st0" d="M283.4,34.6H279V17.2h-17.5v4.4h13.1v4.4h-13.1V39h21.8h0h17.4v-4.4h-13.1V21.5h13.1v-4.4h-17.5V34.6z
		 M274.7,34.6h-8.7v-4.4h8.7V34.6z"/>
	<polygon class="st0" points="244.1,8.5 239.8,8.5 239.8,39 244.1,39 244.1,21.5 252.9,21.5 252.9,39 257.2,39 257.2,17.2 
		244.1,17.2 	"/>
	<polygon class="st0" points="309.5,8.5 305.2,8.5 305.2,39 309.5,39 309.5,30.3 318.2,30.3 318.2,25.9 309.5,25.9 	"/>
	<rect x="318.2" y="30.3" class="st0" width="4.4" height="8.7"/>
</g>
<path class="st1" d="M25,11.9h2.4v23.8H25V44h15.2v-8.3h-2.4v-8.3h6.4l1.6,1.6v15H59v-8.3h-2.8v-9.9L53.4,23l2.8-2.8V9.9l-6-5.9H25
	V11.9z M37.8,11.9V19h6.4l1.6-1.5v-3.9l-1.6-1.7H37.8z"/>
</svg>
