<?xml version="1.0" encoding="UTF-8" standalone="no"?>
<!-- Generator: Adobe Illustrator 28.1.0, SVG Export Plug-In . SVG Version: 6.00 Build 0)  -->

<svg
   version="1.1"
   id="Layer_1"
   x="0px"
   y="0px"
   viewBox="0 0 436 51"
   style="enable-background:new 0 0 436 51;"
   xml:space="preserve"
   sodipodi:docname="ridgehacks.svg"
   inkscape:version="1.4 (e7c3feb100, 2024-10-09)"
   xmlns:inkscape="http://www.inkscape.org/namespaces/inkscape"
   xmlns:sodipodi="http://sodipodi.sourceforge.net/DTD/sodipodi-0.dtd"
   xmlns="http://www.w3.org/2000/svg"
   xmlns:svg="http://www.w3.org/2000/svg"><defs
   id="defs11" /><sodipodi:namedview
   id="namedview11"
   pagecolor="#ffffff"
   bordercolor="#000000"
   borderopacity="0.25"
   inkscape:showpageshadow="2"
   inkscape:pageopacity="0.0"
   inkscape:pagecheckerboard="0"
   inkscape:deskcolor="#d1d1d1"
   inkscape:zoom="2.0549046"
   inkscape:cx="226.28788"
   inkscape:cy="54.747067"
   inkscape:window-width="1436"
   inkscape:window-height="901"
   inkscape:window-x="0"
   inkscape:window-y="0"
   inkscape:window-maximized="0"
   inkscape:current-layer="Layer_1" />
<style
   type="text/css"
   id="style1">
	.st0{fill:#FFFFFF;}
	.st1{fill-rule:evenodd;clip-rule:evenodd;fill:#FFFFFF;}
</style>
<g
   id="g11"
   style="fill:#1a1a1a">
	<rect
   x="156.9"
   y="8.5"
   class="st0"
   width="4.4"
   height="4.4"
   id="rect1"
   style="fill:#ffffff" />
	<path
   class="st0"
   d="M196.2,39h13.1v4.4h-13.1v4.4h17.5V17.2h-17.5V39z M200.5,21.5h8.7v13.1h-8.7V21.5z"
   id="path1"
   style="fill:#ffffff" />
	<path
   class="st0"
   d="M187.5,17.2h-13.1V39h17.5V8.5h-4.4V17.2z M187.5,34.6h-8.7V21.5h8.7V34.6z"
   id="path2"
   style="fill:#ffffff" />
	<polygon
   class="st0"
   points="161.3,17.2 152.6,17.2 152.6,21.5 156.9,21.5 156.9,34.6 152.6,34.6 152.6,39 165.7,39 165.7,34.6    161.3,34.6  "
   id="polygon2"
   style="fill:#ffffff" />
	<path
   class="st0"
   d="M104.6,17.2h-4.4v4.4h-4.4v-4.4h-4.4v4.4h-4.4v4.4h4.4v4.4h-4.4v4.4h4.4V39h4.4v-4.4h4.4V39h4.4v-4.4h4.4v-4.4   h-4.4v-4.4h4.4v-4.4h-4.4V17.2z M100.3,30.3h-4.4v-4.4h4.4V30.3z"
   id="path3"
   style="fill:#ffffff" />
	<polygon
   class="st0"
   points="69.8,8.5 74.1,8.5 74.1,39 69.8,39 69.8,43.4 78.5,43.4 78.5,4.1 69.8,4.1  "
   id="polygon3"
   style="fill:#ffffff" />
	<polygon
   class="st0"
   points="4.4,43.4 13.1,43.4 13.1,39 8.7,39 8.7,8.5 13.1,8.5 13.1,4.1 4.4,4.1  "
   id="polygon4"
   style="fill:#ffffff" />
	<polygon
   class="st0"
   points="130.8,39 135.1,39 135.1,21.5 143.9,21.5 143.9,25.9 148.2,25.9 148.2,17.2 130.8,17.2  "
   id="polygon5"
   style="fill:#ffffff" />
	<path
   class="st0"
   d="M370.5,39H388V8.5h-17.5V39z M374.9,21.5h4.4v-4.4h-4.4v-4.4h8.7v13.1h-4.4v4.4h4.4v4.4h-8.7V21.5z"
   id="path5"
   style="fill:#ffffff" />
	<polygon
   class="st0"
   points="327,30.3 340,30.3 340,34.6 327,34.6 327,39 344.4,39 344.4,25.9 331.3,25.9 331.3,21.5 344.4,21.5    344.4,17.2 327,17.2  "
   id="polygon6"
   style="fill:#ffffff" />
	<path
   class="st0"
   d="M218,39h17.5v-4.4h-13.1v-4.4h13.1V17.2H218V39z M222.3,21.5h8.7v4.4h-8.7V21.5z"
   id="path6"
   style="fill:#ffffff" />
	<path
   id="polygon7"
   class="st0"
   d="m 427.2,21.5 h -8.7 v -13 h -4.4 v 13 4.4 0 h 13.1 V 39 h 4.4 v -13.1 0 -4.4 z"
   style="fill:#ffffff"
   sodipodi:nodetypes="cccccccccccccc" />
	<polygon
   class="st0"
   points="392.3,12.8 405.4,12.8 405.4,21.5 392.3,21.5 392.3,39 409.8,39 409.8,34.6 396.7,34.6 396.7,25.9    409.8,25.9 409.8,8.5 392.3,8.5  "
   id="polygon8"
   style="fill:#ffffff" />
	<polygon
   class="st0"
   points="348.8,12.8 361.8,12.8 361.8,21.5 348.8,21.5 348.8,39 366.2,39 366.2,34.6 353.1,34.6 353.1,25.9    366.2,25.9 366.2,8.5 348.8,8.5  "
   id="polygon9"
   style="fill:#ffffff" />
	<rect
   x="318.2"
   y="17.2"
   class="st0"
   width="4.4"
   height="8.7"
   id="rect9"
   style="fill:#ffffff" />
	<path
   class="st0"
   d="M283.4,34.6H279V17.2h-17.5v4.4h13.1v4.4h-13.1V39h21.8h0h17.4v-4.4h-13.1V21.5h13.1v-4.4h-17.5V34.6z    M274.7,34.6h-8.7v-4.4h8.7V34.6z"
   id="path9"
   style="fill:#ffffff" />
	<polygon
   class="st0"
   points="244.1,8.5 239.8,8.5 239.8,39 244.1,39 244.1,21.5 252.9,21.5 252.9,39 257.2,39 257.2,17.2    244.1,17.2  "
   id="polygon10"
   style="fill:#ffffff" />
	<polygon
   class="st0"
   points="309.5,8.5 305.2,8.5 305.2,39 309.5,39 309.5,30.3 318.2,30.3 318.2,25.9 309.5,25.9  "
   id="polygon11"
   style="fill:#ffffff" />
	<rect
   x="318.2"
   y="30.3"
   class="st0"
   width="4.4"
   height="8.7"
   id="rect11"
   style="fill:#ffffff" />
<rect
   style="fill:#ffffff;stroke-width:0.124845;stroke-linecap:round;stroke-linejoin:bevel"
   id="rect12"
   width="4.4000001"
   height="17.5"
   x="34.600731"
   y="-431.59863"
   transform="rotate(90)" /><rect
   style="fill:#ffffff;stroke-width:0.124845;stroke-linecap:round;stroke-linejoin:bevel"
   id="rect12-3"
   width="4.4000001"
   height="17.5"
   x="8.4988985"
   y="-431.60034"
   transform="rotate(90)" /></g>
<path
   class="st1"
   d="M25,11.9h2.4v23.8H25V44h15.2v-8.3h-2.4v-8.3h6.4l1.6,1.6v15H59v-8.3h-2.8v-9.9L53.4,23l2.8-2.8V9.9l-6-5.9H25  V11.9z M37.8,11.9V19h6.4l1.6-1.5v-3.9l-1.6-1.7H37.8z"
   id="path11"
   style="fill:#ffffff" />
</svg>
